<svg xmlns="http://www.w3.org/2000/svg" viewBox="0 0 100 100" width="120" height="120">
  <circle cx="50" cy="50" r="45" fill="#FFF0F5"/>
  <!-- 主拼图块 -->
  <path d="M 30 30 L 42 30 A 8 8 0 0 0 58 30 L 70 30 L 70 42 A 8 8 0 0 0 70 58 L 70 70 L 58 70 A 8 8 0 0 1 42 70 L 30 70 L 30 58 A 8 8 0 0 1 30 42 Z" fill="#FF69B4" stroke="#C2185B" stroke-width="3" stroke-linejoin="round"/>
  <!-- 拼图表情 -->
  <circle cx="42" cy="48" r="3" fill="#FFF"/>
  <circle cx="58" cy="48" r="3" fill="#FFF"/>
  <path d="M47 53 Q50 56 53 53" stroke="#FFF" stroke-width="2" fill="none" stroke-linecap="round"/>
  <circle cx="37" cy="51" r="3" fill="#FF1493" opacity="0.4"/>
  <circle cx="63" cy="51" r="3" fill="#FF1493" opacity="0.4"/>
  <!-- 散落的小碎片 -->
  <path d="M 75 18 H 85 V 28 H 75 Z" fill="#FFB6C1" stroke="#C2185B" stroke-width="2"/>
  <path d="M 18 75 H 25 V 82 H 18 Z" fill="#FFB6C1" stroke="#C2185B" stroke-width="2"/>
</svg>